<svg xmlns="http://www.w3.org/2000/svg" viewBox="0 0 27 26.79"><defs><style>.cls-1{fill:#00c300;}.cls-2{fill:#fff;}.cls-3{fill:#f37527;}</style></defs><g id="레이어_2" data-name="레이어 2"><g id="레이어_1-2" data-name="레이어 1"><rect class="cls-1" width="27" height="26.79" rx="4.91"/><path class="cls-2" d="M21.13,2.2H5.46A3.63,3.63,0,0,0,1.85,5.83v8.61a3.62,3.62,0,0,0,3.61,3.63h5.4l1.84,3a.35.35,0,0,0,.06.08.61.61,0,0,0,1.07,0,.22.22,0,0,0,.06-.09l1.84-3h5.4a3.62,3.62,0,0,0,3.62-3.63V5.83A3.63,3.63,0,0,0,21.13,2.2"/><path class="cls-3" d="M6.94,8.51a1.88,1.88,0,0,0-1.2.55V6.84H4.34v5.84H5.76v-.46a1.34,1.34,0,0,0,1.18.61,2.07,2.07,0,0,0,2-2.19s-.07-2.13-2-2.13m-.31,3.08a.9.9,0,1,1,.9-.9.9.9,0,0,1-.9.9"/><path class="cls-3" d="M9.36,6.7V8.06S10,8,10,9.22v3.46h1.35V8.9s.06-2.2-2-2.2"/><path class="cls-3" d="M14.66,8.53s-2.32,0-2.32,2.16a2.09,2.09,0,0,0,2.32,2.14s2.37,0,2.37-2.14a2.13,2.13,0,0,0-2.37-2.16m0,3.06a.9.9,0,1,1,.9-.9.9.9,0,0,1-.9.9"/><path class="cls-3" d="M20.89,8.67v.39a1.52,1.52,0,0,0-1.17-.53,1.93,1.93,0,0,0-2,2.15s0,2.08,1.93,2.08a1.6,1.6,0,0,0,1.23-.54v.33a.89.89,0,0,1-.89,1h-.34v1.24h.55a2,2,0,0,0,2.05-2.18v-4Zm-.83,2.92a.9.9,0,1,1,.9-.9.9.9,0,0,1-.9.9"/></g></g></svg>