<svg xmlns="http://www.w3.org/2000/svg" viewBox="0 0 27 26.79"><defs><style>.cls-1{fill:#fff;}</style></defs><g id="레이어_2" data-name="레이어 2"><g id="레이어_1-2" data-name="레이어 1"><path class="cls-1" d="M22.09,0H4.91A4.91,4.91,0,0,0,0,4.91v17a4.91,4.91,0,0,0,4.91,4.91H22.09A4.91,4.91,0,0,0,27,21.88v-17A4.91,4.91,0,0,0,22.09,0Zm2.66,14.44a3.62,3.62,0,0,1-3.62,3.63h-5.4l-1.84,3a.22.22,0,0,1-.06.09.61.61,0,0,1-1.07,0,.35.35,0,0,1-.06-.08l-1.84-3H5.46a3.62,3.62,0,0,1-3.61-3.63V5.83A3.63,3.63,0,0,1,5.46,2.2H21.13a3.63,3.63,0,0,1,3.62,3.63Z"/><path class="cls-1" d="M6.94,8.51a1.88,1.88,0,0,0-1.2.55V6.84H4.34v5.84H5.76v-.46a1.34,1.34,0,0,0,1.18.61,2.07,2.07,0,0,0,2-2.19S8.84,8.51,6.94,8.51Zm-.31,3.08a.9.9,0,1,1,.9-.9A.9.9,0,0,1,6.63,11.59Z"/><path class="cls-1" d="M9.36,6.7V8.06S10,8,10,9.22v3.46h1.35V8.9S11.41,6.7,9.36,6.7Z"/><path class="cls-1" d="M14.66,8.53s-2.32,0-2.32,2.16a2.09,2.09,0,0,0,2.32,2.14s2.37,0,2.37-2.14A2.13,2.13,0,0,0,14.66,8.53Zm0,3.06a.9.9,0,1,1,.9-.9A.9.9,0,0,1,14.66,11.59Z"/><path class="cls-1" d="M20.89,9.06a1.52,1.52,0,0,0-1.17-.53,1.93,1.93,0,0,0-2,2.15s0,2.08,1.93,2.08a1.6,1.6,0,0,0,1.23-.54v.33a.89.89,0,0,1-.89,1h-.34v1.24h.55a2,2,0,0,0,2.05-2.18v-4H20.89Zm-.83,2.53a.9.9,0,1,1,.9-.9A.9.9,0,0,1,20.06,11.59Z"/></g></g></svg>