<svg width="673" height="146" viewBox="0 0 673 146" fill="none" xmlns="http://www.w3.org/2000/svg">
<path d="M57.4707 105.465V119H17.9932V105.465H57.4707ZM23.9551 40.7969V119H6.44531V40.7969H23.9551ZM60.5881 90.5332V89.4053C60.5881 85.1442 61.1968 81.2233 62.4143 77.6426C63.6317 74.026 65.4221 70.8929 67.7854 68.2432C70.1486 65.5934 73.049 63.5345 76.4865 62.0664C79.924 60.5625 83.8628 59.8105 88.3029 59.8105C92.8146 59.8105 96.7893 60.5625 100.227 62.0664C103.7 63.5345 106.618 65.5934 108.982 68.2432C111.345 70.8929 113.135 74.026 114.353 77.6426C115.57 81.2233 116.179 85.1442 116.179 89.4053V90.5332C116.179 94.7585 115.57 98.6794 114.353 102.296C113.135 105.877 111.345 109.01 108.982 111.695C106.618 114.345 103.718 116.404 100.28 117.872C96.843 119.34 92.8863 120.074 88.4104 120.074C83.9702 120.074 80.0135 119.34 76.5402 117.872C73.0669 116.404 70.1486 114.345 67.7854 111.695C65.4221 109.01 63.6317 105.877 62.4143 102.296C61.1968 98.6794 60.5881 94.7585 60.5881 90.5332ZM77.3996 89.4053V90.5332C77.3996 92.8249 77.5786 94.9733 77.9367 96.9785C78.3306 98.9837 78.9572 100.738 79.8166 102.242C80.676 103.746 81.8039 104.928 83.2004 105.787C84.6327 106.611 86.3693 107.022 88.4104 107.022C90.4514 107.022 92.1701 106.611 93.5666 105.787C94.9631 104.928 96.091 103.746 96.9504 102.242C97.8098 100.738 98.4185 98.9837 98.7766 96.9785C99.1704 94.9733 99.3674 92.8249 99.3674 90.5332V89.4053C99.3674 87.1494 99.1704 85.0368 98.7766 83.0674C98.4185 81.0622 97.8098 79.2897 96.9504 77.75C96.091 76.2103 94.9452 75.0107 93.5129 74.1514C92.1164 73.292 90.3798 72.8623 88.3029 72.8623C86.2977 72.8623 84.5969 73.292 83.2004 74.1514C81.8039 75.0107 80.676 76.2103 79.8166 77.75C78.9572 79.2897 78.3306 81.0622 77.9367 83.0674C77.5786 85.0368 77.3996 87.1494 77.3996 89.4053ZM120.371 90.5332V89.4053C120.371 85.1442 120.979 81.2233 122.197 77.6426C123.414 74.026 125.204 70.8929 127.568 68.2432C129.931 65.5934 132.831 63.5345 136.269 62.0664C139.706 60.5625 143.645 59.8105 148.085 59.8105C152.597 59.8105 156.572 60.5625 160.009 62.0664C163.482 63.5345 166.401 65.5934 168.764 68.2432C171.127 70.8929 172.918 74.026 174.135 77.6426C175.353 81.2233 175.961 85.1442 175.961 89.4053V90.5332C175.961 94.7585 175.353 98.6794 174.135 102.296C172.918 105.877 171.127 109.01 168.764 111.695C166.401 114.345 163.5 116.404 160.063 117.872C156.625 119.34 152.669 120.074 148.193 120.074C143.753 120.074 139.796 119.34 136.323 117.872C132.849 116.404 129.931 114.345 127.568 111.695C125.204 109.01 123.414 105.877 122.197 102.296C120.979 98.6794 120.371 94.7585 120.371 90.5332ZM137.182 89.4053V90.5332C137.182 92.8249 137.361 94.9733 137.719 96.9785C138.113 98.9837 138.74 100.738 139.599 102.242C140.458 103.746 141.586 104.928 142.983 105.787C144.415 106.611 146.152 107.022 148.193 107.022C150.234 107.022 151.953 106.611 153.349 105.787C154.746 104.928 155.873 103.746 156.733 102.242C157.592 100.738 158.201 98.9837 158.559 96.9785C158.953 94.9733 159.15 92.8249 159.15 90.5332V89.4053C159.15 87.1494 158.953 85.0368 158.559 83.0674C158.201 81.0622 157.592 79.2897 156.733 77.75C155.873 76.2103 154.728 75.0107 153.295 74.1514C151.899 73.292 150.162 72.8623 148.085 72.8623C146.08 72.8623 144.379 73.292 142.983 74.1514C141.586 75.0107 140.458 76.2103 139.599 77.75C138.74 79.2897 138.113 81.0622 137.719 83.0674C137.361 85.0368 137.182 87.1494 137.182 89.4053ZM199.435 36.4463V119H182.624V36.4463H199.435ZM236.335 60.8848L211.037 90.1035L197.663 103.531L190.949 92.1982L201.798 78.1797L216.139 60.8848H236.335ZM218.61 119L202.228 92.3057L214.259 82.9062L237.838 119H218.61ZM270.819 102.833C270.819 101.759 270.479 100.81 269.799 99.9863C269.154 99.1628 267.972 98.4108 266.254 97.7305C264.571 97.0501 262.19 96.3698 259.11 95.6895C256.21 95.0807 253.506 94.293 251 93.3262C248.493 92.3236 246.309 91.124 244.447 89.7275C242.585 88.2952 241.135 86.6123 240.096 84.6787C239.058 82.7093 238.539 80.4714 238.539 77.9648C238.539 75.5299 239.058 73.2204 240.096 71.0361C241.171 68.8519 242.71 66.9183 244.716 65.2354C246.757 63.5524 249.227 62.2275 252.128 61.2607C255.064 60.2939 258.394 59.8105 262.118 59.8105C267.238 59.8105 271.661 60.6162 275.385 62.2275C279.109 63.8031 281.973 66.0231 283.978 68.8877C285.984 71.7165 286.986 74.957 286.986 78.6094H270.228C270.228 77.1055 269.942 75.7985 269.369 74.6885C268.796 73.5785 267.919 72.7191 266.737 72.1104C265.555 71.4658 263.998 71.1436 262.064 71.1436C260.56 71.1436 259.235 71.4121 258.09 71.9492C256.98 72.4505 256.102 73.1488 255.458 74.0439C254.849 74.9391 254.545 75.9775 254.545 77.1592C254.545 77.9827 254.724 78.7347 255.082 79.415C255.476 80.0596 256.067 80.6683 256.854 81.2412C257.678 81.7783 258.734 82.2617 260.023 82.6914C261.348 83.1211 262.959 83.5329 264.857 83.9268C268.903 84.6787 272.592 85.735 275.922 87.0957C279.288 88.4564 281.973 90.3363 283.978 92.7354C286.019 95.1344 287.04 98.3034 287.04 102.242C287.04 104.82 286.449 107.184 285.267 109.332C284.122 111.48 282.457 113.36 280.272 114.972C278.088 116.583 275.474 117.836 272.43 118.731C269.387 119.627 265.949 120.074 262.118 120.074C256.639 120.074 252.002 119.09 248.207 117.12C244.411 115.151 241.547 112.68 239.613 109.708C237.715 106.7 236.766 103.621 236.766 100.47H252.504C252.575 102.403 253.059 103.979 253.954 105.196C254.885 106.414 256.084 107.309 257.553 107.882C259.021 108.419 260.668 108.688 262.494 108.688C264.32 108.688 265.842 108.437 267.059 107.936C268.277 107.434 269.208 106.754 269.852 105.895C270.497 104.999 270.819 103.979 270.819 102.833ZM371.263 105.465V119H331.785V105.465H371.263ZM337.747 40.7969V119H320.237V40.7969H337.747ZM394.468 60.8848V119H377.657V60.8848H394.468ZM376.636 45.8457C376.636 43.4108 377.496 41.4235 379.214 39.8838C380.933 38.3083 383.189 37.5205 385.982 37.5205C388.775 37.5205 391.031 38.3083 392.749 39.8838C394.504 41.4235 395.381 43.4108 395.381 45.8457C395.381 48.2448 394.504 50.2321 392.749 51.8076C391.031 53.3473 388.775 54.1172 385.982 54.1172C383.189 54.1172 380.933 53.3473 379.214 51.8076C377.496 50.2321 376.636 48.2448 376.636 45.8457ZM421.218 36.4463V119H404.407V36.4463H421.218ZM458.118 60.8848L432.82 90.1035L419.446 103.531L412.732 92.1982L423.582 78.1797L437.922 60.8848H458.118ZM440.393 119L424.011 92.3057L436.043 82.9062L459.622 119H440.393ZM487.983 120.074C483.364 120.074 479.228 119.34 475.576 117.872C471.924 116.404 468.826 114.381 466.284 111.803C463.777 109.189 461.862 106.181 460.537 102.779C459.212 99.3776 458.55 95.7432 458.55 91.876V89.835C458.55 85.5023 459.158 81.5098 460.376 77.8574C461.593 74.2051 463.366 71.0361 465.693 68.3506C468.056 65.6292 470.957 63.5345 474.394 62.0664C477.832 60.5625 481.753 59.8105 486.157 59.8105C490.275 59.8105 493.945 60.4909 497.168 61.8516C500.39 63.1764 503.112 65.0921 505.332 67.5986C507.552 70.0693 509.235 73.0592 510.381 76.5684C511.562 80.0417 512.153 83.9447 512.153 88.2773V95.1523H465.317V84.3564H495.718V83.0674C495.718 81.0264 495.342 79.236 494.59 77.6963C493.874 76.1566 492.799 74.9749 491.367 74.1514C489.971 73.292 488.198 72.8623 486.05 72.8623C484.009 72.8623 482.308 73.292 480.947 74.1514C479.586 75.0107 478.494 76.2282 477.671 77.8037C476.883 79.3434 476.31 81.1517 475.952 83.2285C475.594 85.2695 475.415 87.4717 475.415 89.835V91.876C475.415 94.1318 475.719 96.1908 476.328 98.0527C476.937 99.9147 477.832 101.508 479.013 102.833C480.195 104.158 481.627 105.196 483.31 105.948C484.993 106.7 486.909 107.076 489.057 107.076C491.707 107.076 494.232 106.575 496.631 105.572C499.03 104.534 501.107 102.923 502.861 100.738L510.703 109.708C509.521 111.427 507.856 113.092 505.708 114.703C503.595 116.279 501.053 117.568 498.081 118.57C495.109 119.573 491.743 120.074 487.983 120.074Z" fill="white"/>
<path fill-rule="evenodd" clip-rule="evenodd" d="M613.997 139.141C647.433 133.865 673 104.918 673 70C673 31.3401 641.66 0 603 0C564.34 0 533 31.3401 533 70C533 103.922 557.129 132.208 589.159 138.632V82.7354H571.661V65.4121H589.159V58.1348C589.159 51.543 590.451 46.0059 593.035 41.5234C595.672 37.041 599.39 33.6396 604.188 31.3193C608.987 28.999 614.656 27.8389 621.195 27.8389C623.463 27.8389 625.572 27.9971 627.523 28.3135C629.527 28.5771 631.479 28.9463 633.377 29.4209V47.8516C632.375 47.5879 631.347 47.4033 630.292 47.2979C629.237 47.1924 627.972 47.1396 626.495 47.1396C623.858 47.1396 621.591 47.5615 619.692 48.4053C617.847 49.1963 616.423 50.4355 615.421 52.123C614.472 53.7578 613.997 55.7617 613.997 58.1348V65.4121H632.925L627.925 82.7354H613.997V139.141Z" fill="white"/>
</svg>
